<?xml version="1.0" encoding="utf-8"?>
<!-- Generator: Adobe Illustrator 27.0.0, SVG Export Plug-In . SVG Version: 6.00 Build 0)  -->
<svg version="1.1" id="Layer_1" xmlns="http://www.w3.org/2000/svg" xmlns:xlink="http://www.w3.org/1999/xlink" x="0px" y="0px"
	 viewBox="0 0 325 280.5" style="enable-background:new 0 0 325 280.5;" xml:space="preserve">
<style type="text/css">
	.st0{fill:#122346;}
</style>
<path class="st0" d="M253.2,266.7h-23.9l-19.1-85.2c0,0,0,0,0,0l-13.8-61.3l0,0l-8.6-38.1l0,0L170.6,5.3C169.9,2.2,167.2,0,164,0
	H96.1c-3.2,0-6,2.2-6.7,5.3L30.7,266.7H6.9c-3.8,0-6.9,3.1-6.9,6.9s3.1,6.9,6.9,6.9h246.4c3.8,0,6.9-3.1,6.9-6.9
	S257,266.7,253.2,266.7L253.2,266.7z M150.1,214.2l13-24.4h21l-13,24.4H150.1z M111.6,214.2l13-24.4h23l-13,24.4
	C134.6,214.2,111.6,214.2,111.6,214.2z M75,214.2l13-24.4h21l-13,24.4H75z M56.6,214.2l5.5-24.4h10.4l-13,24.4
	C59.5,214.2,56.6,214.2,56.6,214.2z M75.9,128.4h9.4h0c0,0,0,0,0,0h34h0c0,0,0,0,0,0h34h0c0,0,0,0,0,0h30.9l10.7,47.6H159
	c0,0,0,0,0,0h-38.5c0,0,0,0,0,0H83.9c0,0,0,0,0,0H65.2L75.9,128.4L75.9,128.4z M84.4,90.3h9.8l-13,24.4H79L84.4,90.3L84.4,90.3z
	 M128.2,90.3l-13,24.4H96.8l13-24.4H128.2z M162.3,90.3l-13,24.4h-18.5l13-24.4H162.3z M181.2,114.7h-16.4l11.5-21.6L181.2,114.7z
	 M198.5,192l5,22.1h-16.8L198.5,192z M101.6,13.7h56.8l14.1,62.9h-32.9c0,0,0,0-0.1,0h-34c0,0,0,0-0.1,0H87.5
	C87.5,76.6,101.6,13.7,101.6,13.7z M53.5,227.9h10c0,0,0,0,0,0c0,0,0,0,0,0h36.5c0,0,0,0,0,0c0,0,0,0,0,0h38.5c0,0,0,0,0,0
	c0,0,0,0,0,0h36.6c0,0,0,0,0,0c0,0,0,0,0,0h31.3l8.7,38.9H44.8L53.5,227.9L53.5,227.9z"/>
</svg>
