<?xml version="1.0" encoding="UTF-8"?>
<svg id="Layer_1" data-name="Layer 1" xmlns="http://www.w3.org/2000/svg" viewBox="0 0 395.14 280.45">
  <defs>
    <style>
      .cls-1 {
        fill: #122346;
      }
    </style>
  </defs>
  <path class="cls-1" d="M370.79,215.62v-25.9c-.08-37.73-12.48-74.39-35.3-104.43l2.31-9.16c.5-2.13,.12-4.37-1.04-6.23-1.16-1.86-3.01-3.17-5.14-3.67-3.42-.72-6.93,.8-8.74,3.79-23.01-24.06-52.49-40.96-84.87-48.67l.82-12.54c.15-2.28-.66-4.52-2.23-6.19-1.55-1.68-3.74-2.63-6.02-2.64h-65.99c-2.29,0-4.46,.96-6.02,2.64-1.57,1.66-2.37,3.9-2.22,6.19l.83,12.54h0c-32.29,7.77-61.67,24.67-84.63,48.67-1.74-3.09-5.26-4.71-8.75-4.04-2.23,.43-4.19,1.76-5.41,3.68s-1.59,4.26-1.03,6.46l2.06,9.24h0c-22.76,30.03-35.07,66.67-35.06,104.35v25.9c-10.33,2.81-18.66,10.45-22.34,20.5-3.68,10.06-2.25,21.27,3.82,30.08,6.08,8.81,16.06,14.12,26.76,14.25H362.54c10.71-.13,20.68-5.44,26.76-14.25,6.08-8.81,7.51-20.03,3.83-30.08-3.68-10.05-12.01-17.69-22.34-20.5h0ZM221.74,16.5l-7.17,107.23h-33.99l-7.17-107.23h48.34ZM40.85,189.72c.08-29.18,8.34-57.76,23.84-82.49l17.41,76.13c.89,3.8,4.34,6.46,8.25,6.35,.6,.08,1.21,.08,1.82,0,2.13-.49,3.98-1.81,5.15-3.67,1.16-1.86,1.53-4.1,1.04-6.23l-20.79-90.57c20.88-25.11,49.13-43,80.76-51.14l6.27,94.45c.3,4.33,3.91,7.68,8.25,7.67h49.49c4.34,.01,7.94-3.34,8.25-7.67l6.27-94.45c31.62,8.14,59.88,26.03,80.75,51.14l-21.03,90.33c-.5,2.13-.12,4.38,1.04,6.23,1.16,1.86,3.01,3.18,5.15,3.67,.67,.19,1.37,.27,2.06,.25,3.91,.1,7.35-2.55,8.25-6.35l17.4-76.13c15.51,24.72,23.77,53.3,23.84,82.49v24.74H40.85v-24.75Zm321.7,74.24H32.6c-5.89,0-11.34-3.14-14.29-8.25-2.95-5.1-2.95-11.39,0-16.5,2.95-5.1,8.39-8.25,14.29-8.25H362.55c5.89,0,11.34,3.14,14.28,8.25,2.95,5.1,2.95,11.39,0,16.5-2.95,5.1-8.39,8.25-14.28,8.25Z"/>
</svg>