<?xml version="1.0" encoding="UTF-8"?>
<svg id="Layer_1" data-name="Layer 1" xmlns="http://www.w3.org/2000/svg" viewBox="0 0 394.43 281.19">
  <defs>
    <style>
      .cls-1 {
        fill: #122346;
      }
    </style>
  </defs>
  <path class="cls-1" d="M50.33,198.31c-15.54,0-28.12,12.58-28.12,28.12s12.58,28.12,28.12,28.12,28.12-12.58,28.12-28.12c.74-15.54-11.84-28.12-28.12-28.12Zm0,41.44c-7.4,0-13.32-5.92-13.32-13.32s5.92-13.32,13.32-13.32,13.32,5.92,13.32,13.32c.74,7.4-5.18,13.32-13.32,13.32Z"/>
  <path class="cls-1" d="M364.81,173.89h-5.92c-10.36-28.86-37-48.84-67.34-51.8-2.22-26.64-25.16-47.36-52.54-47.36h-18.5L192.4,4.44c-1.48-2.96-3.7-4.44-6.66-4.44H50.32c-4.44,0-7.4,2.96-7.4,7.4V106.56h-11.1v-40.7c0-4.44-2.96-7.4-7.4-7.4H7.4c-4.44,0-7.4,2.96-7.4,7.4s2.96,7.4,7.4,7.4h9.62v33.3H7.4c-4.44,0-7.4,2.96-7.4,7.4v113.22c0,28.12,22.94,50.32,50.32,50.32s49.58-22.2,50.32-48.84h108.04c11.1,31.08,41.44,52.54,74.74,52.54s63.64-21.46,74.74-52.54h28.86c4.44,0,7.4-2.96,7.4-7.4v-16.28c.74-17.76-13.32-31.08-29.6-31.08h0Zm-22.2,0h-9.62c-9.62-17.76-28.12-28.86-48.84-28.86s-39.22,11.1-48.84,28.86h-9.62c10.36-22.2,33.3-37.74,58.46-37.74s48.11,14.8,58.46,37.74h0Zm-27.38,0h-62.16c7.4-8.88,19.24-14.06,31.08-14.06s22.94,5.18,31.08,14.06ZM14.8,120.62H50.32c4.44,0,7.4-2.96,7.4-7.4V14.06h123.57l28.12,70.3c1.48,2.96,3.7,4.44,6.66,4.44h23.68c19.24,0,34.78,14.06,37,32.56-30.34,2.96-56.24,22.94-66.6,51.8h-5.92c-17.02,0-30.34,14.06-30.34,30.34v8.88H99.89c-5.92-21.46-25.16-37-48.84-37-14.06,0-26.64,5.92-35.52,14.8V120.62h-.73Zm269.35,107.3h31.08c-7.4,8.88-19.24,14.06-31.08,14.06-12.58,0-23.68-5.18-31.08-14.06h31.08Zm-233.83,34.04c-19.98,0-35.52-16.28-35.52-35.52s16.28-35.52,35.52-35.52,36.26,15.54,36.26,35.52-16.28,35.52-36.26,35.52h0Zm233.83,3.7c-25.16,0-48.1-14.8-58.46-37.74h9.62c9.62,17.76,28.12,28.86,48.84,28.86s39.22-11.1,48.84-28.86h9.62c-10.37,22.2-33.3,37.74-58.46,37.74h0Zm96.2-52.54H187.95v-8.88c0-8.88,7.4-15.54,15.54-15.54h161.31c8.88,0,15.54,7.4,15.54,15.54v8.88Z"/>
  <path class="cls-1" d="M79.19,125.05h117.66c4.44,0,7.4-2.96,7.4-7.4,0-1.48-.74-2.96-1.48-3.7L169.47,27.38c-.74-2.96-3.7-4.44-6.66-4.44H79.19c-4.44,0-7.4,2.96-7.4,7.4V117.65c0,3.7,2.96,7.4,7.4,7.4h0Zm7.4-88.06h71.04l28.12,73.26H86.59V37Z"/>
  <path class="cls-1" d="M114.7,136.15c-4.44,0-7.4,2.96-7.4,7.4v28.86c0,4.44,2.96,7.4,7.4,7.4s7.4-2.96,7.4-7.4v-28.86c0-3.7-3.7-7.4-7.4-7.4Z"/>
  <path class="cls-1" d="M136.16,136.15c-4.44,0-7.4,2.96-7.4,7.4v28.86c0,4.44,2.96,7.4,7.4,7.4s7.4-2.96,7.4-7.4v-28.86c0-3.7-2.96-7.4-7.4-7.4Z"/>
  <path class="cls-1" d="M158.36,136.15c-4.44,0-7.4,2.96-7.4,7.4v28.86c0,4.44,2.96,7.4,7.4,7.4s7.4-2.96,7.4-7.4v-28.86c0-3.7-3.7-7.4-7.4-7.4Z"/>
</svg>