<?xml version="1.0" encoding="UTF-8"?>
<svg id="Layer_1" data-name="Layer 1" xmlns="http://www.w3.org/2000/svg" viewBox="0 0 445.92 281.19">
  <defs>
    <style>
      .cls-1 {
        fill: #122346;
      }
    </style>
  </defs>
  <path class="cls-1" d="M440.45,143.14l-46.21-12.66-39.58-75.85c-1.27-2.46-3.82-4-6.59-4h-62.25c-4.11,0-7.45,3.35-7.45,7.45V235.64h-8.19l-.11-58.23c0-.06,.04-.11,.04-.17s-.04-.11-.04-.19l-.26-139.07h40.68c4.11,0,7.45-3.35,7.45-7.45s-3.35-7.45-7.45-7.45h-55.2c-1.58,0-3.13,.5-4.39,1.45l-21.84,16.01c-3.07-1.71-6.55-2.76-9.9-2.9-2.18-.11-4.37-.15-6.57-.15-3.69,0-7.97-.24-9.61,.74-4.8-6.14-9.46-12.42-14.06-18.77-4.23-5.8-9.28-6.77-13.32-6.9l-4.78-.02c-3.09-.06-6.22-.07-9.27,.11-9.31,.73-18.17-.78-27.05-4.41-4.88-1.95-9.85-3.72-14.84-5.49l-6.46-2.29c-.82-.29-1.66-.46-2.53-.46h-3.89c-1.99,0-3.93,.82-5.33,2.23l-1.43,1.38c-1.43,1.34-3.05,2.83-4.45,4.86-6.72,9.92-13.39,19.86-21.21,30.68l-2.72,.5c-7.02,1.3-14.02,2.62-20.89,4.36-4.19,1.04-8.4,4-10.69,7.56-4.93,7.54-9.49,15.34-13.98,23.18h-2.2c-3.61,0-6.72,2.62-7.35,6.18L.1,176.06c-.28,1.7,.02,3.45,.86,4.93l20.18,35.87v26.23c0,4.11,3.35,7.45,7.45,7.45h21c1.54,6.89,5.12,13.53,10.44,18.93,7.32,7.39,16.98,11.67,26.55,11.71h.11c17.71,0,33.6-13.66,37.34-30.64h192.24c1.54,6.89,5.12,13.53,10.44,18.93,7.32,7.39,16.98,11.67,26.55,11.71h.11c17.71,0,33.6-13.67,37.34-30.64h47.75c4.11,0,7.45-3.35,7.45-7.45v-92.77c.03-3.36-2.25-6.29-5.47-7.18h0ZM107.88,16.89c.37-.54,1.02-1.19,1.77-1.9l5.06,1.81c4.77,1.68,9.53,3.37,14.19,5.23,10.89,4.45,22.3,6.29,33.68,5.51,2.66-.22,5.33-.15,8.02-.09l6.25,.76c4.69,6.48,9.46,12.92,14.39,19.21,2.2,2.79,6.09,4.77,9.7,4.9,2.83,.13,5.68,.13,8.53,.07,1.1,0,2.21,.04,3.33,.04l-30.46,22.32h-29.86c-4.36-5.44-8.58-10.98-12.57-16.7-3.01-4.28-7-7.06-12.2-8.45-5.12-1.38-17.59-4.54-28.32-7.26-2.61-.67-5.01-1.27-7.24-1.85,5.2-7.89,10.39-15.8,15.71-23.61h0ZM52.57,59.69c.24-.39,1.21-1.08,1.81-1.23,6.59-1.66,13.29-2.9,19.99-4.15l2.74-.5c1.04-.21,1.82-.74,2.76-1.08,3.26,.86,9.14,2.34,15.84,4.04,10.67,2.7,23.03,5.82,28.11,7.18,1.82,.5,2.89,1.21,3.89,2.65,1.95,2.78,4.09,5.42,6.13,8.16H43.48c2.96-5.07,5.85-10.15,9.08-15.07h0Zm-22.42,29.97H184.79c1.58,0,3.13-.5,4.39-1.45l65.68-48.14,.24,129.73h-30.74l19.47-21.54c2.76-3.05,2.53-7.76-.52-10.52-3.09-2.78-7.78-2.51-10.52,.52l-28.52,31.54h-16.48l19.47-21.54c2.76-3.05,2.53-7.76-.52-10.52-3.09-2.78-7.76-2.51-10.52,.52l-28.52,31.54h-16.5s19.47-21.53,19.47-21.53c2.76-3.05,2.53-7.76-.52-10.52-3.09-2.78-7.76-2.51-10.52,.52l-28.52,31.54h-16.5s19.47-21.54,19.47-21.54c2.76-3.05,2.53-7.76-.52-10.52-3.09-2.78-7.76-2.51-10.52,.52l-28.52,31.54h-16.5s19.47-21.54,19.47-21.54c2.76-3.05,2.53-7.76-.52-10.52-3.09-2.78-7.76-2.51-10.52,.52l-28.52,31.54h-16.5s19.47-21.54,19.47-21.54c2.76-3.05,2.53-7.76-.52-10.52-3.07-2.78-7.76-2.51-10.52,.52l-28.52,31.54h-5.09s13.84-80.13,13.84-80.13Zm4.93,121.6l-14.97-26.59H255.15l.09,50.96H124c-3.76-16.63-19.62-30.44-37.29-30.64-17.59,0-33.44,13.67-37.16,30.64h-13.5v-20.72c0-1.26-.35-2.55-.97-3.65h0Zm51.61,55.01v7.45l-.07-7.45c-5.62-.02-11.43-2.66-15.97-7.26-4.54-4.6-7.11-10.43-7.04-16.03,.11-11.86,11.34-23.07,23.29-23.07,11.99,.13,23.2,11.47,23.07,23.33-.09,11.82-11.43,23.03-23.27,23.03h0ZM343.55,65.55l33.31,63.82h-83.59v-63.82h50.28Zm9.83,200.72v7.45l-.07-7.45c-5.62-.02-11.43-2.66-15.97-7.26-4.53-4.6-7.09-10.44-7.02-16.03,.11-11.86,11.34-23.07,23.29-23.07,11.99,.13,23.2,11.47,23.07,23.33-.11,11.82-11.43,23.03-23.29,23.03h0Zm37.31-30.64c-3.76-16.63-19.62-30.44-37.29-30.64-17.59,0-33.44,13.67-37.16,30.64h-22.99v-91.37h94.91l42.86,11.75v16.48h-14.89c-4.11,0-7.45,3.35-7.45,7.45s3.35,7.45,7.45,7.45h14.89v48.26h-40.33Z"/>
</svg>